<?xml version="1.0" encoding="utf-8"?>
<!-- Generator: Adobe Illustrator 25.3.1, SVG Export Plug-In . SVG Version: 6.00 Build 0)  -->
<svg version="1.1" id="Layer_1" xmlns="http://www.w3.org/2000/svg" xmlns:xlink="http://www.w3.org/1999/xlink" x="0px" y="0px"
	 viewBox="0 0 469.3 469.3" style="enable-background:new 0 0 469.3 469.3;" xml:space="preserve">
<style type="text/css">
	.st0{fill:#1F6FFF;}
</style>
<g>
	<g>
		<path class="st0" d="M469.3,234.7c0-11.2-5.9-21.3-15.9-27.2l-26.1-15.4c10.1-6,19-11.3,26.2-15.5c9.9-5.9,15.8-16.1,15.8-27.2
			s-5.9-21.3-15.8-27.2c-32.7-19.4-143.4-85.3-198-116.6c-12.6-7.3-28-7.6-41.7,0.1c0,0-148.5,87.2-197.9,116.5
			C5.9,128,0,138.2,0,149.3c0,11.1,5.9,21.3,15.8,27.2c7.1,4.2,16.1,9.6,26.2,15.5l-26.1,15.4C5.9,213.3,0,223.5,0,234.7
			c0,11.1,5.9,21.3,15.8,27.2c7.1,4.2,16.1,9.6,26.2,15.5l-26.1,15.4C5.9,298.7,0,308.8,0,320c0,11.1,5.9,21.3,15.8,27.2
			c42.3,25.1,146.2,86.8,198,116.6c6.4,3.6,13.6,5.6,20.8,5.6s14.4-1.9,20.8-5.6c51.9-29.7,155.7-91.4,198-116.6
			c9.9-5.9,15.8-16.1,15.8-27.2c0-11.2-5.9-21.3-15.9-27.2l-26.1-15.4c10.1-6,19-11.3,26.2-15.5
			C463.4,255.9,469.3,245.8,469.3,234.7z M26.8,158.2c-1.6-1-5.4-3.8-5.4-8.9c0-5.1,3.8-7.9,5.4-8.9
			C76.1,111.2,224.4,24.1,224.4,24.2c6.8-3.8,14.2-3.7,20.5-0.1c54.5,31.2,165.1,97,197.7,116.4c1.6,1,5.4,3.8,5.4,8.9
			s-3.8,7.9-5.4,8.9c-42.2,25.1-146,86.7-197.7,116.4c-6.4,3.7-14,3.7-20.4,0C172.7,244.9,69,183.3,26.8,158.2z M442.6,311.1
			c1.6,1,5.4,3.8,5.4,8.9c0,5.1-3.8,7.9-5.4,8.9c-42.2,25.1-146,86.7-197.7,116.4c-6.4,3.7-14,3.7-20.4,0
			C172.7,415.6,69,354,26.8,328.9c-1.6-1-5.4-3.8-5.4-8.9c0-5.1,3.8-7.9,5.4-8.9l36.2-21.3c48.9,29,113.5,67.1,150.9,88.6
			c6.4,3.6,13.6,5.6,20.8,5.6s14.4-1.9,20.8-5.6c37.5-21.5,102-59.6,150.9-88.6L442.6,311.1z M442.6,243.5
			c-42.2,25.1-146,86.7-197.7,116.4c-6.4,3.7-14,3.7-20.4,0C172.7,330.3,69,268.6,26.8,243.6c-1.6-1-5.4-3.8-5.4-8.9
			c0-5.1,3.8-7.9,5.4-8.9l36.2-21.3c48.9,29,113.5,67.1,150.9,88.6c6.4,3.6,13.6,5.6,20.8,5.6s14.4-1.9,20.8-5.6
			c37.5-21.5,102-59.6,150.9-88.6l36.2,21.3c1.6,1,5.4,3.8,5.4,8.9C448,239.8,444.2,242.6,442.6,243.5z"/>
	</g>
</g>
</svg>
